<svg width="429" height="123" viewBox="0 0 429 123" fill="none" xmlns="http://www.w3.org/2000/svg">
<path d="M185.348 19.8636C185.463 21.1673 185.36 22.4659 185.039 23.7594C184.867 24.9119 184.547 26.2055 184.078 27.6402C183.305 29.646 182.235 31.9341 180.869 34.5044C180.254 35.9357 178.969 38.1465 177.012 41.1368C176.404 42.2792 175.527 42.5479 174.38 41.9431C173.236 41.1938 173.04 40.2496 173.793 39.1106C173.793 39.1106 173.867 39.0401 174.016 38.899C175.655 37.0578 177.152 35.141 178.505 33.1486C180.007 31.0151 181.218 28.8748 182.139 26.7278C182.602 25.5821 182.99 24.5069 183.303 23.5023L183.324 22.6355L183.562 21.7736C183.578 21.0513 183.594 20.4011 183.607 19.8232C183.489 18.664 183.224 17.5737 182.813 16.5523C182.401 15.5308 181.843 14.5782 181.138 13.6945C179.721 12.2161 177.718 10.9409 175.13 9.86897C174.27 9.41534 173.118 9.02722 171.674 8.7046C170.52 8.38871 169.364 8.14508 168.207 7.97367C164.161 7.15703 159.235 6.75363 153.428 6.76347C145.88 6.73291 135.994 7.37088 123.77 8.67739L120.055 9.24171L116.345 9.58932C114.017 9.82442 111.542 10.1284 108.921 10.5012C104.986 11.1327 100.033 11.8852 94.061 12.7585C93.6258 12.7484 92.2424 12.9331 89.9109 13.3127L87.6535 16.7297C84.792 21.1446 81.8547 25.7022 78.8415 30.4027C76.4254 34.3942 73.6332 38.9552 70.4647 44.0857C68.9564 46.5082 67.5223 48.8601 66.1625 51.1415C64.6542 53.5639 63.2926 55.9175 62.0778 58.2023C56.0277 68.6145 51.0151 78.1112 47.04 86.6924C44.4418 92.2698 42.5099 97.2845 41.2444 101.736C40.4514 104.609 39.8844 107.126 39.5435 109.286C39.5097 110.731 39.5519 112.033 39.6699 113.192C39.7812 114.64 40.1169 115.804 40.6769 116.685C40.957 117.125 40.8034 117.483 40.2163 117.758C39.7709 118.182 39.4082 118.173 39.1282 117.733C38.4298 116.56 37.9541 115.176 37.7011 113.58C37.4414 112.273 37.3301 110.825 37.3673 109.236C37.5698 106.783 38.0693 104.048 38.8657 101.031C39.5001 98.7325 40.2881 96.0765 41.2296 93.0626C42.1542 90.7712 43.1564 88.2647 44.2362 85.5432C45.3093 83.1106 46.4566 80.6075 47.6781 78.0338C48.5959 76.0313 49.7415 73.6004 51.1149 70.7412C53.3994 66.1683 55.9807 61.3133 58.859 56.1761C60.0704 54.0358 61.3594 51.6806 62.7261 49.1102C63.9374 46.97 65.299 44.6164 66.8107 42.0495C69.2267 38.0579 72.0932 33.4263 75.4101 28.1547C78.2715 23.7399 81.2089 19.1822 84.2221 14.4817C84.2221 14.4817 84.298 14.339 84.4499 14.0534C75.1272 15.4272 68.4279 16.3559 64.352 16.8396C52.4077 18.5863 42.4339 19.8727 34.4305 20.6989C28.1749 21.2766 23.1593 21.5939 19.3837 21.6509C16.3336 21.7246 13.7929 21.738 11.7617 21.6909C10.3142 21.5127 9.08604 21.2674 8.0772 20.9549C7.35515 20.7936 6.70734 20.5617 6.13376 20.2593C5.41509 19.9535 4.84151 19.6511 4.41301 19.352C3.12415 18.5993 2.13052 17.6367 1.43213 16.464C1.0104 15.876 0.661204 15.2897 0.384554 14.705C0.256369 13.9793 0.128184 13.2535 0 12.5278C0.0304216 11.2275 0.280162 9.85997 0.74922 8.42528C1.35998 7.13844 2.11245 5.99945 3.00663 5.0083C3.4554 4.44049 3.90249 3.94492 4.34789 3.52158C4.93837 3.10161 5.52885 2.68164 6.11933 2.26168C7.29692 1.56621 8.61452 1.09083 10.0721 0.835537C10.6592 0.56004 11.3155 0.430709 12.0409 0.447539C12.6247 0.316527 13.3518 0.261119 14.2223 0.281315C15.5281 0.311609 16.9013 0.560303 18.342 1.0274C19.641 1.34665 20.0577 2.15138 19.592 3.44158C19.2714 4.73515 18.5358 5.15175 17.3853 4.69139C17.2402 4.68803 17.0951 4.68466 16.95 4.68129C14.9425 3.62282 12.8472 3.21282 10.6642 3.45129C8.33267 3.83086 6.34866 4.869 4.71216 6.56571C3.82137 7.41239 3.14651 8.33634 2.68759 9.33759C2.22868 10.3388 1.9857 11.4174 1.95865 12.5732C1.93499 13.5846 2.27574 14.5321 2.98088 15.4158C3.54094 16.2961 4.32032 17.1092 5.31902 17.8552C5.74751 18.1543 6.25024 18.3827 6.82721 18.5407C7.25908 18.6953 7.83435 18.9254 8.55302 19.2312C9.56524 19.3993 10.7225 19.5707 12.0249 19.7454C14.1978 19.9404 16.666 19.9254 19.4294 19.7004C23.6436 19.5091 28.59 19.0456 34.2686 18.31C39.3635 17.7054 49.1991 16.1267 63.7752 13.5737C72.2273 12.1797 80.0958 10.9167 87.3805 9.78466C87.5289 9.64355 87.7533 9.35964 88.0536 8.93294C88.3573 8.36176 88.5851 7.93337 88.7369 7.64779C90.5388 5.08758 92.042 2.88182 93.2467 1.03054C93.9991 -0.108459 94.9473 -0.303306 96.091 0.446012C97.0897 1.19197 97.2854 2.13614 96.678 3.2785L92.8465 8.8273C92.8465 8.8273 92.9191 8.82899 93.0641 8.83235C93.2092 8.83572 93.3543 8.83908 93.4994 8.84245C98.5977 8.09339 103.549 7.41321 108.354 6.8019C110.972 6.57353 113.447 6.26956 115.779 5.88998L119.706 5.54742L123.416 5.19983C125.889 4.96809 128.361 4.8086 130.83 4.72134C133.449 4.49297 135.993 4.33517 138.463 4.24792C143.838 4.0835 148.846 4.05515 153.489 4.16286C159.289 4.44198 164.357 4.99322 168.693 5.81659C169.847 6.13248 170.999 6.5206 172.149 6.98096C173.448 7.30021 174.746 7.6917 176.041 8.15544C177.337 8.61916 178.484 9.224 179.483 9.96995C180.627 10.7193 181.624 11.5375 182.474 12.4245C183.466 13.4594 184.164 14.6321 184.569 15.9425C185.122 17.1118 185.382 18.4188 185.348 19.8636Z" fill="#2C2C2C"/>
<path d="M306.532 41.8183C306.988 43.2111 307.162 44.7218 307.056 46.3505C307.094 47.8524 306.796 49.2642 306.162 50.586C305.836 51.3826 305.514 52.1114 305.197 52.7723C304.889 53.2974 304.44 53.8816 303.85 54.5248C303.088 55.702 302.127 56.798 300.965 57.8128C299.069 59.5977 296.699 61.2837 293.858 62.8708C291.579 64.2219 289.028 65.5552 286.204 66.8708C281.418 68.8766 275.96 70.7024 269.829 72.348C264.398 73.7666 258.776 74.9683 252.962 75.953C247.157 76.8021 241.439 77.3841 235.806 77.6991C232.79 77.7754 229.914 77.7928 227.179 77.7511C225.126 77.7538 223.218 77.6297 221.455 77.3786C221.819 78.0839 222.12 78.7168 222.357 79.2775C223.814 82.0984 225.157 84.5712 226.387 86.6958C227.871 89.1096 229.432 91.3921 231.071 93.5433C232.981 95.7122 234.983 97.5462 237.074 99.0454C239.293 100.689 241.607 101.93 244.016 102.769C246.552 103.751 249.184 104.331 251.909 104.509C254.499 104.677 257.247 104.515 260.154 104.023C262.652 103.504 265.368 102.795 268.301 101.895C270.553 100.951 273.096 99.7537 275.928 98.3023C278.326 97.2316 280.813 95.8259 283.391 94.0854C284.39 93.4688 285.602 92.7299 287.027 91.8685C287.036 91.7327 287.54 91.3566 288.538 90.74C289.546 89.9878 290.263 89.4892 290.69 89.2444C291.262 88.8726 291.671 88.8993 291.916 89.3242C292.171 89.6134 292.153 89.8848 291.863 90.1385C290.701 91.1534 288.123 92.8939 284.129 95.3601C281.841 96.8469 279.349 98.3205 276.653 99.7807C275.518 100.388 274.242 101.055 272.826 101.781C271.691 102.388 270.42 102.987 269.012 103.577C266.061 104.748 263.264 105.657 260.62 106.302C257.56 107.057 254.657 107.482 251.914 107.576C248.761 107.643 245.712 107.172 242.767 106.163C239.949 105.298 237.303 103.899 234.829 101.966C232.474 100.314 230.354 98.1992 228.47 95.6231C227.451 94.4664 226.568 93.3185 225.822 92.1794C225.084 90.9047 224.346 89.6299 223.609 88.3552C222.397 85.9591 221.203 83.2916 220.028 80.3527C219.663 79.6474 219.185 78.594 218.592 77.1924L218.606 76.9888C217.515 76.9179 216.498 76.7835 215.552 76.5857C215.552 76.5857 215.48 76.6491 215.335 76.776C215.326 76.9117 215.253 76.9751 215.117 76.9662C212.269 80.7338 209.784 84.1842 207.662 87.3175C204.796 91.3565 202.571 95.0283 200.985 98.3327C199.897 100.307 198.95 102.221 198.144 104.077C197.32 106.205 196.778 108.214 196.517 110.105C196.093 112.395 196.027 114.435 196.32 116.226C196.732 118.297 197.575 120.056 198.849 121.502C199.231 121.936 199.204 122.343 198.769 122.724C198.469 123.113 198.128 123.091 197.746 122.657L197.542 122.644C196.777 121.776 196.158 120.782 195.684 119.661C195.439 119.236 195.265 118.747 195.165 118.195C195.173 118.06 195.123 117.784 195.014 117.368C194.913 116.816 194.863 116.54 194.863 116.54C194.451 114.469 194.462 112.22 194.895 109.795C195.301 107.777 195.852 105.632 196.549 103.36C197.21 101.631 198.093 99.6439 199.198 97.3987C202.079 91.0434 206.39 83.7589 212.13 75.5451C211.321 75.3562 210.585 75.1038 209.921 74.788C208.467 74.0118 207.293 73.1177 206.402 72.1055C205.756 71.5182 205.319 70.8764 205.091 70.1801C204.599 69.3302 204.38 68.4981 204.433 67.6838C204.324 67.2677 204.35 66.8605 204.514 66.4622C204.685 65.9282 204.917 65.5343 205.207 65.2806C205.506 64.8911 205.869 64.574 206.296 64.3292C206.714 64.22 207.2 64.1154 207.754 64.0151C208.444 63.9237 209.258 64.0448 210.194 64.3783C210.866 64.5584 211.53 64.8742 212.185 65.3257C213.376 65.9485 214.622 66.7792 215.922 67.818C216.05 67.9626 216.309 68.1839 216.7 68.482C216.827 68.6266 216.955 68.7712 217.082 68.9158C219.64 65.4019 222.415 61.6978 225.408 57.8034C228.538 53.9178 231.962 49.7107 235.681 45.1819C239.409 40.5175 242.316 36.8901 244.403 34.2997C245.754 32.4794 247.028 30.7903 248.226 29.2325C249.432 27.5391 250.642 25.7777 251.857 23.9485C252.601 23.0427 253.204 22.196 253.667 21.4082C254.419 20.3668 254.959 19.4477 255.285 18.6511C255.892 17.7365 256.359 16.8809 256.685 16.0842C257.038 14.8804 257.305 13.9436 257.486 13.2739C257.494 13.1382 257.503 13.0024 257.512 12.8667C257.376 12.8578 257.308 12.8534 257.308 12.8534C256.89 12.9625 256.463 13.2074 256.028 13.5879C255.601 13.8328 255.174 14.0776 254.748 14.3225C253.595 15.2016 251.929 16.5926 249.751 18.4955C248.59 19.5104 246.92 20.9692 244.742 22.8721C242.564 24.775 241.035 26.1748 240.155 27.0717C238.557 28.4671 236.892 29.8581 235.158 31.2447C233.271 32.8939 231.605 34.2848 230.162 35.4177C228.284 36.9311 226.491 38.1775 224.784 39.1569C223.649 39.7646 222.659 40.2454 221.815 40.5994C220.816 41.2159 219.827 41.6968 218.846 42.0419C216.594 42.9858 214.437 43.5269 212.374 43.6654C211.693 43.621 211.079 43.5811 210.534 43.5456C209.989 43.5102 209.444 43.4747 208.899 43.4392C207.681 43.2237 206.549 42.7411 205.503 41.9915C204.449 41.3776 203.616 40.5056 203.006 39.3755C202.633 38.806 202.396 38.2453 202.295 37.6935C202.067 36.9972 201.902 36.3731 201.802 35.8213C201.746 34.5909 201.898 33.3059 202.26 31.9664C202.459 31.0252 202.875 29.8937 203.509 28.5719C204.126 27.5216 204.961 27.3033 206.016 27.9172C207.08 28.3953 207.372 29.164 206.891 30.2232C206.883 30.3589 206.806 30.4902 206.66 30.6171C206.062 31.3959 205.599 32.1837 205.273 32.9803C205.101 33.5144 204.934 33.9805 204.771 34.3788C204.744 34.786 204.717 35.1932 204.691 35.6004C204.557 37.6363 205.204 39.2459 206.632 40.4293C207.423 40.8897 208.287 41.2867 209.223 41.6202C209.769 41.6557 210.314 41.6911 210.859 41.7266C211.259 41.889 211.736 41.92 212.29 41.8197C214.071 41.7993 216.083 41.385 218.326 40.5768C220.287 39.8866 222.194 38.9884 224.046 37.8822C225.753 36.9028 227.541 35.7242 229.411 34.3465C230.564 33.4674 232.161 32.072 234.203 30.1602C235.501 29.1542 237.166 27.7632 239.199 25.9872C240.079 25.0903 241.54 23.686 243.582 21.7743C245.769 19.7357 247.443 18.209 248.605 17.1941C250.51 15.2735 252.112 13.8102 253.41 12.8042C253.982 12.4325 254.481 12.1243 254.908 11.8794C255.489 11.372 255.988 11.0637 256.406 10.9546C256.833 10.7097 257.187 10.5283 257.468 10.4103C257.741 10.4281 258.013 10.4458 258.286 10.4635C258.559 10.4813 258.822 10.6347 259.077 10.9239C259.341 11.0774 259.527 11.3622 259.637 11.7782C259.764 11.9228 259.887 12.1353 260.006 12.4156C259.988 12.687 259.966 13.0263 259.939 13.4335C259.903 13.9764 259.795 14.5828 259.614 15.2525C259.579 15.7954 259.475 16.3339 259.303 16.868C258.959 17.936 258.547 18.9997 258.067 20.0589C257.27 21.779 256.25 23.7572 255.008 25.9936C253.956 27.4246 252.741 29.2538 251.363 31.4813C250.166 33.0391 248.819 34.7916 247.322 36.7388C244.466 40.6421 239.096 47.3806 231.213 56.9543C226.596 62.6513 222.5 67.7008 218.926 72.1026C219.427 72.8168 219.969 73.9425 220.553 75.4798C220.68 75.6244 220.744 75.6967 220.744 75.6967C222.652 75.8209 224.833 75.9628 227.286 76.1224C229.885 76.1552 232.696 76.0656 235.722 75.8535C241.073 75.6565 246.719 75.1379 252.66 74.2977C258.474 73.3129 264.092 72.1791 269.514 70.8963C275.372 69.2329 280.694 67.3983 285.479 65.3925C288.294 64.2126 290.841 62.9471 293.12 61.596C295.825 60.0001 298.122 58.3775 300.01 56.7284C302.205 54.5541 303.788 52.3398 304.757 50.0857C305.246 48.8908 305.467 47.6102 305.42 46.2441C305.509 44.8868 305.321 43.5797 304.856 42.3227C304.527 41.0745 303.994 39.8131 303.256 38.5383L303.079 38.1178L302.697 37.684C302.578 37.4037 302.391 37.119 302.137 36.8298C301.754 36.396 301.304 35.9578 300.786 35.5151C299.74 34.7655 298.544 34.2106 297.199 33.8505C295.99 33.4992 294.7 33.3471 293.328 33.3942C291.956 33.4412 290.644 33.6284 289.39 33.9557C288 34.2742 286.802 34.8096 285.794 35.5619C284.65 36.3053 283.707 37.1299 282.963 38.0356C282.346 39.086 282.003 40.154 281.931 41.2398C281.987 42.4703 281.398 43.1134 280.162 43.1693C278.935 43.0895 278.294 42.4344 278.238 41.204C278.247 41.0683 278.256 40.9325 278.265 40.7968C278.653 39.0501 279.441 37.4657 280.63 36.0437C281.528 34.8753 282.753 33.9328 284.306 33.216C285.722 32.4903 287.193 31.9727 288.719 31.663C290.245 31.3534 291.762 31.1795 293.271 31.1414C294.906 31.2478 296.392 31.5489 297.728 32.0448C299.346 32.4227 300.737 33.1266 301.901 34.1565C302.42 34.5991 302.934 35.1097 303.443 35.688C303.826 36.1218 304.076 36.4789 304.194 36.7592L304.577 37.193L304.754 37.6135C305.61 39.1686 306.203 40.5702 306.532 41.8183ZM207.504 70.9505C208.396 71.9626 209.51 72.7167 210.846 73.2125C211.501 73.6641 212.233 73.9843 213.042 74.1732C213.939 73.0049 214.842 71.7687 215.749 70.4646C215.621 70.3201 215.494 70.1755 215.367 70.0309C214.984 69.5971 214.725 69.3757 214.589 69.3669C213.561 68.3458 212.451 67.524 211.26 66.9012C210.742 66.4586 210.214 66.1516 209.678 65.9804C209.006 65.8004 208.397 65.6926 207.851 65.6571C207.297 65.7574 206.802 65.9978 206.367 66.3784C206.076 66.6321 205.977 67.1027 206.069 67.7902C206.033 68.3331 206.134 68.8849 206.371 69.4455C206.744 70.015 207.122 70.5167 207.504 70.9505ZM217.362 74.0454C217.353 74.1811 217.271 74.3803 217.117 74.6429C216.972 74.7698 216.827 74.8966 216.682 75.0235C217.09 75.0501 217.495 75.1445 217.895 75.3069C217.776 75.0266 217.599 74.6061 217.362 74.0454Z" fill="#2C2C2C"/>
<path d="M182.019 89.3901C182.403 89.2626 182.659 89.3264 182.787 89.5814C183.043 89.8364 182.979 90.0915 182.595 90.3465C180.546 91.4941 178.498 92.6418 176.449 93.7894C175.168 94.2995 174.08 94.8095 173.183 95.3196C172.031 95.8297 170.943 96.2759 169.918 96.6585C168.638 97.041 167.485 97.3598 166.461 97.6149C165.052 97.9974 163.772 98.1249 162.619 97.9974C161.979 97.9974 161.339 97.8699 160.698 97.6149C159.93 97.2323 159.29 96.7223 158.778 96.0847C158.522 95.8296 158.329 95.5109 158.201 95.1283C158.073 94.7458 157.945 94.3632 157.817 93.9807C157.689 93.2156 157.753 92.4505 158.009 91.6854C158.265 91.0478 158.586 90.4103 158.97 89.7727C159.354 89.1351 159.802 88.625 160.314 88.2425C161.211 87.2224 162.171 86.3935 163.195 85.7559C164.22 85.2459 165.372 84.7358 166.653 84.2258C168.061 83.8432 169.342 83.5882 170.494 83.4607C170.878 83.4607 171.199 83.5244 171.455 83.652C171.455 83.652 171.583 83.652 171.839 83.652C171.967 83.652 172.031 83.652 172.031 83.652C172.287 83.7795 172.479 83.9707 172.607 84.2258C172.607 84.3533 172.607 84.4808 172.607 84.6083C172.735 84.7358 172.799 84.8633 172.799 84.9909C172.799 84.9909 172.799 85.0546 172.799 85.1821C172.799 85.3097 172.799 85.4372 172.799 85.5647C172.671 85.9472 172.479 86.266 172.223 86.521C171.967 86.9036 171.519 87.3499 170.878 87.86C170.366 88.115 169.854 88.37 169.342 88.625C168.317 89.1351 167.165 89.5176 165.884 89.7727C164.732 90.0277 163.644 90.219 162.619 90.3465C161.723 91.2391 161.147 92.0042 160.89 92.6418C160.378 93.5344 160.314 94.2995 160.698 94.937C160.698 94.937 160.698 95.0008 160.698 95.1283C160.826 95.1283 160.89 95.1283 160.89 95.1283C160.89 95.1283 160.89 95.1921 160.89 95.3196C161.019 95.3196 161.083 95.3196 161.083 95.3196C161.211 95.4471 161.339 95.5746 161.467 95.7021C161.851 95.9572 162.299 96.1484 162.811 96.276C163.708 96.4035 164.796 96.4035 166.077 96.276C167.229 96.0209 168.381 95.7659 169.534 95.5109C170.558 95.1283 171.647 94.682 172.799 94.172C173.952 93.7894 174.976 93.3431 175.872 92.833C178.177 91.6854 180.226 90.5378 182.019 89.3901ZM165.116 88.2425C164.732 88.4975 164.412 88.7526 164.156 89.0076C165.82 88.7526 167.421 88.3063 168.958 87.6687C169.47 87.5412 169.918 87.2861 170.302 86.9036C170.814 86.6486 171.199 86.3298 171.455 85.9472C171.583 85.8197 171.647 85.7559 171.647 85.7559V85.3734H171.839V85.1821C171.839 85.0546 171.839 84.9909 171.839 84.9909V84.7996H171.647C171.647 84.7996 171.519 84.7996 171.263 84.7996C171.135 84.7996 170.943 84.8633 170.686 84.9909C170.43 84.9909 170.174 85.0546 169.918 85.1821C169.662 85.1821 169.406 85.2459 169.15 85.3734C168.638 85.6284 168.125 85.9472 167.613 86.3298C167.101 86.7123 166.269 87.3499 165.116 88.2425Z" fill="#2C2C2C"/>
<path d="M192.169 47.3101C192.297 47.5652 192.361 47.8202 192.361 48.0752C192.361 48.5853 192.169 49.0953 191.785 49.6054C191.529 50.1155 191.017 50.753 190.248 51.5181C189.736 52.0282 189.16 52.5382 188.52 53.0483C187.495 53.9409 186.215 54.961 184.678 56.1087C182.757 57.5113 180.132 59.2328 176.803 61.273C172.449 63.9509 166.943 67.075 160.284 70.6454C156.699 72.6856 152.857 74.7896 148.76 76.9574C148.632 77.0849 148.44 77.2124 148.183 77.3399C148.055 77.4675 147.863 77.595 147.607 77.7225C147.479 77.85 147.351 77.9775 147.223 78.105C141.589 82.5681 136.659 86.521 132.433 89.964C132.433 89.964 132.369 90.0277 132.241 90.1552C132.241 90.2827 132.177 90.3465 132.049 90.3465C132.177 90.219 132.305 90.0915 132.433 89.964C132.689 89.8364 132.881 89.7727 133.009 89.7727C134.674 88.7526 136.019 87.9237 137.043 87.2861C138.964 86.1385 140.436 85.3096 141.461 84.7996C142.357 84.417 143.189 84.0983 143.958 83.8432C144.342 83.7157 144.726 83.5882 145.11 83.4607C145.75 83.3332 146.327 83.3332 146.839 83.4607H147.223C147.351 83.4607 147.479 83.4607 147.607 83.4607C147.991 83.5882 148.311 83.7795 148.568 84.0345C148.696 84.162 148.824 84.2895 148.952 84.417C148.952 84.417 149.016 84.4808 149.144 84.6083C149.144 84.7358 149.208 84.8633 149.336 84.9909C149.336 85.1184 149.336 85.2459 149.336 85.3734C149.464 85.756 149.4 86.2023 149.144 86.7123C149.016 87.0949 148.824 87.6049 148.568 88.2425C148.311 88.4975 148.055 88.8163 147.799 89.1989C146.903 90.219 145.686 91.4304 144.15 92.833C143.766 93.3431 143.189 93.8532 142.421 94.3632C141.653 95.1283 141.141 95.7021 140.884 96.0847C140.628 96.3397 140.372 96.5947 140.116 96.8498C140.116 96.9773 140.052 97.1048 139.924 97.2323C139.924 97.2323 139.924 97.1686 139.924 97.041V97.2323C139.924 97.2323 139.988 97.2961 140.116 97.4236C140.372 97.5511 140.692 97.6149 141.077 97.6149C141.717 97.7424 142.485 97.6786 143.381 97.4236C144.022 97.2961 144.79 97.1048 145.686 96.8498C146.327 96.5947 147.031 96.276 147.799 95.8934C148.568 95.5109 149.272 95.1283 149.912 94.7458C151.449 93.9807 152.857 93.2156 154.138 92.4505C157.083 90.5378 159.708 88.625 162.013 86.7123H162.205C162.461 86.4573 162.653 86.521 162.781 86.9036C163.037 87.1586 163.037 87.3499 162.781 87.4774V87.6687C159.324 89.9639 156.571 91.7492 154.522 93.0243C151.065 95.1921 148.247 96.786 146.071 97.8061C145.302 98.0612 144.47 98.3162 143.574 98.5712C142.549 98.9538 141.717 99.1451 141.077 99.1451C140.564 99.2726 140.052 99.2726 139.54 99.1451C139.284 99.0175 139.028 98.89 138.772 98.7625C138.387 98.5075 138.131 98.1887 138.003 97.8061C137.875 97.4236 137.811 97.041 137.811 96.6585C137.939 96.4035 138.003 96.1484 138.003 95.8934C138.259 95.3833 138.516 94.937 138.772 94.5545C139.156 93.7894 139.668 93.0881 140.308 92.4505C140.692 91.9404 141.269 91.3029 142.037 90.5378C142.293 90.2827 142.805 89.7727 143.574 89.0076C144.342 88.2425 144.918 87.6687 145.302 87.2861C145.558 87.0311 145.814 86.7123 146.071 86.3298C146.071 86.3298 146.135 86.3298 146.263 86.3298C146.263 86.2023 146.199 86.1385 146.071 86.1385C146.071 86.011 145.943 85.9472 145.686 85.9472C145.558 85.9472 145.494 85.9472 145.494 85.9472C145.11 85.9472 144.726 85.9472 144.342 85.9472C143.702 86.0747 142.997 86.266 142.229 86.521C140.82 87.0311 139.348 87.6687 137.811 88.4338C136.531 88.9438 135.122 89.7089 133.586 90.729C130.896 92.2592 128.143 94.0444 125.326 96.0847C123.918 97.1048 122.637 98.0612 121.485 98.9538C120.204 100.101 119.052 101.122 118.027 102.014L117.835 102.205C117.323 102.588 116.811 102.524 116.299 102.014C115.914 101.504 115.979 100.994 116.491 100.484C117.387 99.5914 118.54 98.5075 119.948 97.2323C120.844 96.4672 121.997 95.3834 123.405 93.9807C125.07 92.578 127.439 90.5378 130.512 87.86C135.634 83.3969 140.5 79.3164 145.11 75.6185C149.72 71.9206 154.714 68.0313 160.092 63.9509C162.269 62.2932 164.83 60.3804 167.775 58.2127C170.592 56.1724 173.217 54.3872 175.65 52.857C177.059 51.8369 178.404 50.9443 179.684 50.1792C181.093 49.4141 182.501 48.7128 183.91 48.0752C184.678 47.6927 185.446 47.3739 186.215 47.1189C187.111 46.7363 187.879 46.4813 188.52 46.3538C189.032 46.2262 189.48 46.1625 189.864 46.1625C189.992 46.1625 190.056 46.1625 190.056 46.1625C190.184 46.1625 190.248 46.1625 190.248 46.1625C190.504 46.1625 190.632 46.1625 190.632 46.1625C191.017 46.1625 191.337 46.29 191.593 46.545C191.849 46.6725 192.041 46.9276 192.169 47.3101ZM190.825 49.0316C190.953 48.649 191.017 48.3303 191.017 48.0752C191.017 47.9477 190.953 47.8839 190.825 47.8839C190.825 47.7564 190.76 47.6927 190.632 47.6927C190.632 47.6927 190.568 47.6927 190.44 47.6927C190.312 47.6927 190.248 47.6927 190.248 47.6927H190.056C189.8 47.8202 189.48 47.9477 189.096 48.0752C188.584 48.3303 187.943 48.649 187.175 49.0316C186.535 49.4141 185.831 49.7967 185.062 50.1792C184.678 50.5618 183.398 51.4544 181.221 52.857L177.379 55.5349C173.538 58.0852 168.48 61.7831 162.205 66.6287C159.516 68.5414 156.187 71.0279 152.217 74.0883C153.754 73.3232 154.97 72.7494 155.866 72.3669C157.403 71.4742 158.748 70.7092 159.9 70.0716C166.175 66.7562 171.681 63.5683 176.419 60.5079C179.364 58.7227 181.925 57.0013 184.102 55.3436C185.638 54.1959 186.855 53.1758 187.751 52.2832C188.52 51.6456 189.096 51.1356 189.48 50.753C190.12 50.1155 190.568 49.5416 190.825 49.0316Z" fill="#2C2C2C"/>
<path d="M189.867 55.1523C190.251 54.2597 190.892 54.0684 191.788 54.5785C192.812 54.961 193.132 55.5986 192.748 56.4912L192.556 56.6825C192.044 57.7026 191.34 58.659 190.443 59.5516C190.443 59.5516 190.251 59.7429 189.867 60.1254C189.739 60.2529 189.483 60.4442 189.099 60.6992C188.587 60.9543 188.33 61.0818 188.33 61.0818L187.562 61.6556C187.562 61.6556 187.434 61.7193 187.178 61.8469C187.05 61.9744 186.922 62.0381 186.794 62.0381L186.026 62.4207L185.257 62.6119L184.489 62.9945H184.105L183.721 63.1858L182.184 63.5683C181.672 63.6958 181.352 63.7596 181.224 63.7596C179.303 64.0146 177.19 64.2059 174.885 64.3334C172.964 64.3334 170.851 64.2697 168.547 64.1421C164.321 63.8871 157.598 63.122 148.378 61.8469C147.61 62.4844 144.793 64.7159 139.927 68.5414C132.372 74.6621 126.546 79.4439 122.448 82.8869C119.503 85.5647 116.75 88.115 114.189 90.5378C111.244 93.3431 108.619 96.0209 106.314 98.5712C103.497 101.759 101.192 104.756 99.3989 107.561C96.9659 111.004 95.2372 114.319 94.2128 117.507C94.2128 117.762 94.0207 117.89 93.6365 117.89C93.2524 117.762 93.1243 117.507 93.2524 117.125C94.4049 113.809 96.1335 110.43 98.4385 106.987C100.359 104.054 102.664 100.994 105.353 97.8061C107.53 95.1283 110.091 92.323 113.036 89.3901C115.597 86.8398 118.35 84.2258 121.296 81.548C125.265 77.9775 130.964 73.0044 138.39 66.6287C140.439 64.971 142.488 63.1858 144.537 61.273C144.537 61.273 144.345 61.273 143.961 61.273C143.705 61.273 143.513 61.2093 143.384 61.0818C141.08 60.8267 139.031 60.5717 137.238 60.3167C134.933 60.0616 132.82 59.8704 130.899 59.7429C128.723 59.4878 126.674 59.3603 124.753 59.3603C122.192 59.2328 120.079 59.169 118.414 59.169C118.286 59.169 118.03 59.2328 117.646 59.3603C117.262 59.3603 117.006 59.3603 116.878 59.3603C116.75 59.3603 116.494 59.3603 116.11 59.3603C115.725 59.3603 115.469 59.3603 115.341 59.3603C114.189 59.4878 113.164 59.6153 112.268 59.7429C110.091 60.1254 108.106 60.5717 106.314 61.0818C104.137 61.8469 102.28 62.7395 100.743 63.7596C99.0787 65.0347 97.7342 66.4374 96.7098 67.9676C96.1976 68.8602 95.4933 69.0515 94.5969 68.5414C93.7006 67.9038 93.5085 67.1387 94.0207 66.2461C94.1488 66.1186 94.2128 66.0549 94.2128 66.0549C95.8774 64.3972 97.7342 63.0583 99.783 62.0381C101.448 61.018 103.432 60.2529 105.737 59.7429C109.195 58.8503 113.42 58.3402 118.414 58.2127C122.128 58.0852 126.354 58.2127 131.092 58.5952C132.756 58.7227 134.869 58.914 137.43 59.169C139.095 59.4241 141.144 59.6791 143.577 59.9341C144.089 59.9341 144.857 59.9979 145.881 60.1254C146.01 60.1254 146.202 59.9979 146.458 59.7429C146.714 59.4878 146.906 59.2966 147.034 59.169C150.491 56.2362 153.244 53.6859 155.293 51.5181C156.062 50.753 156.83 50.753 157.598 51.5181C158.366 52.2832 158.366 53.0483 157.598 53.8134C155.549 55.7261 152.924 58.0214 149.723 60.6992C152.284 60.9543 154.397 61.2093 156.062 61.4643C161.184 61.9744 165.345 62.2294 168.547 62.2294C170.851 62.3569 172.9 62.3569 174.693 62.2294C176.998 62.1019 179.047 61.7831 180.84 61.273C180.968 61.273 181.224 61.273 181.608 61.273L182.184 61.0818L182.952 60.6992H183.336L183.721 60.508L184.297 60.3167L185.065 59.9341L185.257 59.7429L185.641 59.5516C185.641 59.5516 185.705 59.5516 185.833 59.5516C186.09 59.4241 186.218 59.2966 186.218 59.169C186.986 58.659 187.69 58.0852 188.33 57.4476C188.843 56.81 189.355 56.0449 189.867 55.1523Z" fill="#2C2C2C"/>
<path d="M112.991 89.3901C113.375 89.2626 113.632 89.3264 113.76 89.5814C114.016 89.8364 113.952 90.0915 113.568 90.3465C111.519 91.4941 109.47 92.6418 107.421 93.7894C106.141 94.2995 105.052 94.8095 104.156 95.3196C103.003 95.8297 101.915 96.2759 100.89 96.6585C99.6099 97.041 98.4575 97.3598 97.4331 97.6149C96.0245 97.9974 94.744 98.1249 93.5915 97.9974C92.9513 97.9974 92.311 97.8699 91.6708 97.6149C90.9024 97.2323 90.2622 96.7223 89.75 96.0847C89.4939 95.8296 89.3018 95.5109 89.1737 95.1283C89.0457 94.7458 88.9176 94.3632 88.7896 93.9807C88.6615 93.2156 88.7256 92.4505 88.9817 91.6854C89.2378 91.0478 89.5579 90.4103 89.9421 89.7727C90.3262 89.1351 90.7744 88.625 91.2866 88.2425C92.183 87.2224 93.1433 86.3935 94.1677 85.7559C95.1922 85.2459 96.3446 84.7358 97.6251 84.2258C99.0337 83.8432 100.314 83.5882 101.467 83.4607C101.851 83.4607 102.171 83.5244 102.427 83.652C102.427 83.652 102.555 83.652 102.811 83.652C102.939 83.652 103.003 83.652 103.003 83.652C103.259 83.7795 103.451 83.9707 103.58 84.2258C103.58 84.3533 103.58 84.4808 103.58 84.6083C103.708 84.7358 103.772 84.8633 103.772 84.9909C103.772 84.9909 103.772 85.0546 103.772 85.1821C103.772 85.3097 103.772 85.4372 103.772 85.5647C103.644 85.9472 103.451 86.266 103.195 86.521C102.939 86.9036 102.491 87.3499 101.851 87.86C101.339 88.115 100.826 88.37 100.314 88.625C99.2898 89.1351 98.1373 89.5176 96.8568 89.7727C95.7044 90.0277 94.6159 90.219 93.5915 90.3465C92.6952 91.2391 92.1189 92.0042 91.8628 92.6418C91.3506 93.5344 91.2866 94.2995 91.6708 94.937C91.6708 94.937 91.6708 95.0008 91.6708 95.1283C91.7988 95.1283 91.8628 95.1283 91.8628 95.1283C91.8628 95.1283 91.8628 95.1921 91.8628 95.3196C91.9909 95.3196 92.0549 95.3196 92.0549 95.3196C92.183 95.4471 92.311 95.5746 92.4391 95.7021C92.8232 95.9572 93.2714 96.1484 93.7836 96.276C94.68 96.4035 95.7684 96.4035 97.0489 96.276C98.2014 96.0209 99.3538 95.7659 100.506 95.5109C101.531 95.1283 102.619 94.682 103.772 94.172C104.924 93.7894 105.948 93.3431 106.845 92.833C109.15 91.6854 111.199 90.5378 112.991 89.3901ZM96.0885 88.2425C95.7044 88.4975 95.3842 88.7526 95.1281 89.0076C96.7928 88.7526 98.3934 88.3063 99.9301 87.6687C100.442 87.5412 100.89 87.2861 101.275 86.9036C101.787 86.6486 102.171 86.3298 102.427 85.9472C102.555 85.8197 102.619 85.7559 102.619 85.7559V85.3734H102.811V85.1821C102.811 85.0546 102.811 84.9909 102.811 84.9909V84.7996H102.619C102.619 84.7996 102.491 84.7996 102.235 84.7996C102.107 84.7996 101.915 84.8633 101.659 84.9909C101.403 84.9909 101.147 85.0546 100.89 85.1821C100.634 85.1821 100.378 85.2459 100.122 85.3734C99.6099 85.6284 99.0977 85.9472 98.5855 86.3298C98.0733 86.7123 97.241 87.3499 96.0885 88.2425Z" fill="#2C2C2C"/>
<path d="M91.0945 89.3901C91.3506 89.2626 91.5427 89.3901 91.6708 89.7727C91.9269 90.0277 91.8628 90.219 91.4787 90.3465L89.1738 91.3029L86.6768 92.2592C85.0121 92.8968 83.4115 93.5344 81.8748 94.172C77.9052 95.5746 74.5759 96.5947 71.8868 97.2323C70.8624 97.4874 70.0301 97.6149 69.3898 97.6149C68.2374 97.7424 67.277 97.8061 66.5087 97.8061C65.9965 97.8061 65.4843 97.6786 64.9721 97.4236C64.716 97.2961 64.4599 97.1048 64.2038 96.8498C63.9476 96.5947 63.7556 96.276 63.6275 95.8934C63.6275 95.5109 63.6275 95.1283 63.6275 94.7458C63.7556 94.4907 63.8196 94.2357 63.8196 93.9807C64.0757 93.5981 64.3318 93.1518 64.5879 92.6418C64.9721 92.0042 65.5483 91.3029 66.3166 90.5378C66.8288 89.9002 67.405 89.1989 68.0453 88.4338C68.5575 87.9237 69.1978 87.3499 69.9661 86.7123C70.7344 86.0747 71.4387 85.5009 72.0789 84.9909C72.8472 84.2258 73.5515 84.2895 74.1918 85.1821C74.9601 85.9472 74.896 86.7123 73.9997 87.4774C73.3594 87.86 72.6551 88.37 71.8868 89.0076C71.2466 89.5176 70.6063 90.0277 69.9661 90.5378C69.1978 91.0478 68.5575 91.5579 68.0453 92.068C67.405 92.7055 66.8928 93.3431 66.5087 93.9807C66.2526 94.2357 66.0605 94.4907 65.9324 94.7458C65.6763 95.0008 65.5483 95.2558 65.5483 95.5109C65.5483 95.5109 65.6123 95.5746 65.7404 95.7021C65.7404 95.7021 65.8044 95.7021 65.9324 95.7021C66.0605 95.8297 66.3166 95.9572 66.7008 96.0847C67.4691 96.2122 68.3014 96.276 69.1978 96.276C69.838 96.1484 70.6703 96.0209 71.6948 95.8934C73.2314 95.6384 74.896 95.2558 76.6888 94.7458C78.2254 94.3632 79.826 93.8532 81.4907 93.2156C84.82 92.068 88.0213 90.7928 91.0945 89.3901ZM81.8748 76.3836C82.7712 77.1487 82.5791 78.2326 81.2986 79.6352C80.0181 80.9104 78.9297 81.2292 78.0333 80.5916C77.265 79.8265 77.4571 78.7426 78.6095 77.34C79.89 75.9373 80.9785 75.6185 81.8748 76.3836Z" fill="#2C2C2C"/>
<path d="M425.962 55.1523C426.346 54.2597 426.986 54.0684 427.882 54.5785C428.907 54.961 429.227 55.5986 428.843 56.4912L428.651 56.6825C428.139 57.7026 427.434 58.659 426.538 59.5516C426.538 59.5516 426.346 59.7429 425.962 60.1254C425.834 60.2529 425.578 60.4442 425.193 60.6992C424.681 60.9543 424.425 61.0818 424.425 61.0818L423.657 61.6556C423.657 61.6556 423.529 61.7193 423.273 61.8469C423.145 61.9744 423.017 62.0381 422.888 62.0381L422.12 62.4207L421.352 62.6119L420.584 62.9945H420.199L419.815 63.1858L418.279 63.5683C417.766 63.6958 417.446 63.7596 417.318 63.7596C415.397 64.0146 413.285 64.2059 410.98 64.3334C409.059 64.3334 406.946 64.2697 404.641 64.1421C400.415 63.8871 393.693 63.122 384.473 61.8469C383.705 62.4844 380.888 64.7159 376.022 68.5414C368.467 74.6621 362.64 79.4439 358.543 82.8869C355.597 85.5647 352.844 88.115 350.283 90.5378C347.338 93.3431 344.713 96.0209 342.408 98.5712C339.591 101.759 337.286 104.756 335.493 107.561C333.06 111.004 331.332 114.319 330.307 117.507C330.307 117.762 330.115 117.89 329.731 117.89C329.347 117.762 329.219 117.507 329.347 117.125C330.499 113.809 332.228 110.43 334.533 106.987C336.454 104.054 338.759 100.994 341.448 97.8061C343.625 95.1283 346.186 92.323 349.131 89.3901C351.692 86.8398 354.445 84.2258 357.39 81.548C361.36 77.9775 367.058 73.0044 374.485 66.6287C376.534 64.971 378.583 63.1858 380.632 61.273C380.632 61.273 380.439 61.273 380.055 61.273C379.799 61.273 379.607 61.2093 379.479 61.0818C377.174 60.8267 375.125 60.5717 373.333 60.3167C371.028 60.0616 368.915 59.8704 366.994 59.7429C364.817 59.4878 362.768 59.3603 360.848 59.3603C358.287 59.2328 356.174 59.169 354.509 59.169C354.381 59.169 354.125 59.2328 353.741 59.3603C353.357 59.3603 353.1 59.3603 352.972 59.3603C352.844 59.3603 352.588 59.3603 352.204 59.3603C351.82 59.3603 351.564 59.3603 351.436 59.3603C350.283 59.4878 349.259 59.6153 348.363 59.7429C346.186 60.1254 344.201 60.5717 342.408 61.0818C340.231 61.8469 338.375 62.7395 336.838 63.7596C335.173 65.0347 333.829 66.4374 332.804 67.9676C332.292 68.8602 331.588 69.0515 330.692 68.5414C329.795 67.9038 329.603 67.1387 330.115 66.2461C330.243 66.1186 330.307 66.0549 330.307 66.0549C331.972 64.3972 333.829 63.0583 335.878 62.0381C337.542 61.018 339.527 60.2529 341.832 59.7429C345.289 58.8503 349.515 58.3402 354.509 58.2127C358.223 58.0852 362.448 58.2127 367.186 58.5952C368.851 58.7227 370.964 58.914 373.525 59.169C375.189 59.4241 377.238 59.6791 379.671 59.9341C380.183 59.9341 380.952 59.9979 381.976 60.1254C382.104 60.1254 382.296 59.9979 382.552 59.7429C382.808 59.4878 383 59.2966 383.129 59.169C386.586 56.2362 389.339 53.6859 391.388 51.5181C392.156 50.753 392.924 50.753 393.693 51.5181C394.461 52.2832 394.461 53.0483 393.693 53.8134C391.644 55.7261 389.019 58.0214 385.818 60.6992C388.379 60.9543 390.491 61.2093 392.156 61.4643C397.278 61.9744 401.44 62.2294 404.641 62.2294C406.946 62.3569 408.995 62.3569 410.788 62.2294C413.093 62.1019 415.141 61.7831 416.934 61.273C417.062 61.273 417.318 61.273 417.702 61.273L418.279 61.0818L419.047 60.6992H419.431L419.815 60.508L420.391 60.3167L421.16 59.9341L421.352 59.7429L421.736 59.5516C421.736 59.5516 421.8 59.5516 421.928 59.5516C422.184 59.4241 422.312 59.2966 422.312 59.169C423.081 58.659 423.785 58.0852 424.425 57.4476C424.937 56.81 425.449 56.0449 425.962 55.1523Z" fill="#2C2C2C"/>
<path d="M349.373 89.1988C349.757 89.0713 350.013 89.1988 350.141 89.5814C350.269 89.8364 350.141 90.0277 349.757 90.1552C348.092 90.9203 346.299 91.4304 344.379 91.6854C342.458 92.0679 340.537 92.1317 338.616 91.8767C337.72 91.8767 336.823 91.8129 335.927 91.6854C335.031 91.4304 334.134 91.1116 333.238 90.729C332.214 90.474 331.317 90.1552 330.549 89.7727C330.293 89.6451 329.909 89.4539 329.396 89.1988C329.525 89.3264 329.589 89.5176 329.589 89.7727C329.589 90.4102 329.525 91.1753 329.396 92.0679C329.14 93.4706 328.692 94.8095 328.052 96.0847C327.668 96.7222 327.22 97.3598 326.707 97.9974C326.323 98.5074 325.875 99.0175 325.363 99.5276C324.723 100.038 324.082 100.484 323.442 100.866C322.674 101.122 321.906 101.185 321.137 101.058C320.753 100.93 320.369 100.803 319.985 100.675C319.601 100.42 319.28 100.038 319.024 99.5276C318.768 99.145 318.64 98.6987 318.64 98.1887C318.64 97.8061 318.64 97.4236 318.64 97.041C318.768 96.4034 319.024 95.7021 319.408 94.937C319.665 94.1719 319.985 93.4706 320.369 92.833C321.137 91.5579 322.034 90.4102 323.058 89.3901C323.57 88.7525 324.082 88.1787 324.595 87.6687C324.979 87.4136 325.299 87.1586 325.555 86.9036C326.067 86.6485 326.515 86.4573 326.9 86.3298H327.092C328.116 85.9472 328.82 86.266 329.204 87.2861C329.204 87.4136 329.204 87.6049 329.204 87.8599C329.332 87.9874 329.525 88.0512 329.781 88.0512C330.165 88.3062 330.549 88.5613 330.933 88.8163C331.701 89.1988 332.534 89.5176 333.43 89.7727C334.326 90.0277 335.223 90.2827 336.119 90.5378C337.016 90.6653 337.912 90.7928 338.808 90.9203C340.601 91.0478 342.394 90.9841 344.186 90.729C345.979 90.3465 347.708 89.8364 349.373 89.1988ZM328.436 91.8767C328.564 91.1116 328.564 90.474 328.436 89.9639C328.436 89.7089 328.436 89.4539 328.436 89.1988C328.308 89.3264 328.18 89.3901 328.052 89.3901C327.924 89.3901 327.796 89.3901 327.668 89.3901C327.54 89.3901 327.348 89.4539 327.092 89.5814C326.835 89.7089 326.579 89.8364 326.323 89.9639C325.811 90.3465 325.299 90.729 324.787 91.1116C323.762 92.0042 322.866 92.9605 322.098 93.9807C321.201 95.2558 320.625 96.4034 320.369 97.4236C320.113 98.0611 320.049 98.5712 320.177 98.9537C320.305 99.2088 320.497 99.4 320.753 99.5276C320.881 99.6551 321.073 99.7826 321.329 99.9101C321.97 100.038 322.546 100.038 323.058 99.9101C323.698 99.6551 324.274 99.2725 324.787 98.7625C325.171 98.3799 325.619 97.9336 326.131 97.4236C326.387 96.786 326.707 96.2122 327.092 95.7021C327.732 94.427 328.18 93.1518 328.436 91.8767Z" fill="#2C2C2C"/>
<path d="M323.636 89.1989C323.892 89.0713 324.084 89.1351 324.212 89.3901C324.468 89.6452 324.468 89.9002 324.212 90.1552C322.035 91.6854 319.986 93.0243 318.065 94.172C315.632 95.5746 313.456 96.7223 311.535 97.6149C310.254 98.2524 309.038 98.6987 307.885 98.9538C306.221 99.4638 304.94 99.7189 304.044 99.7189C303.276 99.8464 302.571 99.7189 301.931 99.3363C301.163 99.0813 300.586 98.5712 300.202 97.8061C300.074 97.5511 299.946 97.1686 299.818 96.6585C299.69 96.2759 299.626 95.9572 299.626 95.7021C299.498 95.0646 299.434 94.3632 299.434 93.5981C299.306 92.578 299.37 91.3029 299.626 89.7727C299.882 88.8801 300.01 88.3063 300.01 88.0512C300.01 87.9237 300.01 87.7962 300.01 87.6687C300.01 87.0311 299.498 86.9673 298.474 87.4774C297.705 87.7324 296.809 88.1787 295.785 88.8163C294.76 89.3264 293.736 90.0277 292.711 90.9203C291.943 91.4304 290.983 92.1955 289.83 93.2156C289.574 93.4706 289.19 93.7894 288.678 94.172C288.422 94.427 288.165 94.682 287.909 94.937C286.629 96.4672 285.54 97.6149 284.644 98.38C284.26 98.635 284.004 98.635 283.876 98.38C283.62 98.1249 283.62 97.8699 283.876 97.6149C284.772 96.7223 285.797 95.5746 286.949 94.172C287.717 93.1518 288.614 91.8767 289.638 90.3465C290.534 89.1989 291.431 87.9237 292.327 86.521C293.224 85.1184 293.992 83.7795 294.632 82.5043C295.016 81.8667 295.528 81.7392 296.169 82.1218C296.809 82.5043 296.937 83.0144 296.553 83.652C295.785 84.7996 294.888 86.0747 293.864 87.4774C293.352 88.2425 292.903 88.9438 292.519 89.5814C293.416 88.6888 294.184 87.9875 294.824 87.4774C295.208 86.9673 295.656 86.521 296.169 86.1385C296.809 85.756 297.385 85.3734 297.897 84.9909C298.153 84.8633 298.474 84.7358 298.858 84.6083C299.242 84.3533 299.626 84.2258 300.01 84.2258H300.202C300.33 84.0983 300.522 84.0983 300.779 84.2258C301.035 84.2258 301.355 84.2895 301.739 84.417C301.739 84.417 301.803 84.4808 301.931 84.6083C302.059 84.6083 302.123 84.6721 302.123 84.7996C302.251 84.7996 302.315 84.7996 302.315 84.7996C302.315 84.7996 302.315 84.8633 302.315 84.9909C302.443 84.9909 302.507 85.0546 302.507 85.1821C302.635 85.3097 302.699 85.5009 302.699 85.7559C302.827 85.8835 302.891 85.9472 302.891 85.9472C303.019 86.3298 303.083 86.7761 303.083 87.2861C303.083 87.5412 303.083 87.9237 303.083 88.4338C303.083 88.9438 303.019 89.5814 302.891 90.3465C302.891 90.3465 302.699 91.4941 302.315 93.7894C302.187 94.427 302.123 95.0008 302.123 95.5109C302.123 96.0209 302.123 96.4672 302.123 96.8498C302.123 96.8498 302.187 96.9773 302.315 97.2323C302.315 97.2323 302.315 97.2961 302.315 97.4236C302.315 97.4236 302.315 97.4874 302.315 97.6149C302.443 97.7424 302.635 97.8699 302.891 97.9974C303.147 98.3799 303.596 98.5712 304.236 98.5712C304.492 98.5712 304.748 98.5712 305.004 98.5712C305.132 98.5712 305.26 98.5712 305.388 98.5712C305.516 98.5712 305.58 98.5712 305.58 98.5712C305.709 98.5712 305.837 98.5712 305.965 98.5712H306.349L306.541 98.38H306.733C306.861 98.38 307.181 98.3162 307.693 98.1887C307.821 98.0612 307.949 97.9974 308.077 97.9974C308.334 97.8699 308.462 97.8061 308.462 97.8061L309.23 97.4236C309.486 97.2961 309.806 97.1686 310.19 97.041L310.959 96.6585C312.879 95.7659 315.056 94.6183 317.489 93.2156C319.41 92.068 321.459 90.729 323.636 89.1989Z" fill="#2C2C2C"/>
</svg>
